<?xml version="1.0" encoding="UTF-8" standalone="no"?>
<!DOCTYPE svg PUBLIC "-//W3C//DTD SVG 1.1//EN"
 "http://www.w3.org/Graphics/SVG/1.1/DTD/svg11.dtd">
<!-- Generated by graphviz version 2.36.0 (20140111.2315)
 -->
<!-- Title: controllers_diagram Pages: 1 -->
<svg width="584pt" height="557pt"
 viewBox="0.00 0.00 584.38 556.98" xmlns="http://www.w3.org/2000/svg" xmlns:xlink="http://www.w3.org/1999/xlink">
<g id="graph0" class="graph" transform="scale(1 1) rotate(0) translate(4 552.983)">
<title>controllers_diagram</title>
<polygon fill="white" stroke="none" points="-4,4 -4,-552.983 580.375,-552.983 580.375,4 -4,4"/>
<!-- _diagram_info -->
<g id="node1" class="node"><title>_diagram_info</title>
<text text-anchor="start" x="377" y="-345.6" font-family="Times,serif" font-size="13.00">Controllers diagram</text>
<text text-anchor="start" x="377" y="-332.6" font-family="Times,serif" font-size="13.00">Date: Jun 10 2014 &#45; 10:34</text>
<text text-anchor="start" x="377" y="-319.6" font-family="Times,serif" font-size="13.00">Migration version: 20140527000721</text>
<text text-anchor="start" x="377" y="-306.6" font-family="Times,serif" font-size="13.00">Generated by RailRoady 1.1.1</text>
<text text-anchor="start" x="377" y="-293.6" font-family="Times,serif" font-size="13.00">http://railroady.prestonlee.com</text>
</g>
<!-- ApplicationController -->
<g id="node2" class="node"><title>ApplicationController</title>
<path fill="none" stroke="black" d="M166.978,-222.878C166.978,-222.878 282.619,-222.878 282.619,-222.878 288.619,-222.878 294.619,-228.878 294.619,-234.878 294.619,-234.878 294.619,-358.878 294.619,-358.878 294.619,-364.878 288.619,-370.878 282.619,-370.878 282.619,-370.878 166.978,-370.878 166.978,-370.878 160.978,-370.878 154.978,-364.878 154.978,-358.878 154.978,-358.878 154.978,-234.878 154.978,-234.878 154.978,-228.878 160.978,-222.878 166.978,-222.878"/>
<text text-anchor="middle" x="224.799" y="-355.678" font-family="Times,serif" font-size="14.00">ApplicationController</text>
<polyline fill="none" stroke="black" points="154.978,-348.878 294.619,-348.878 "/>
<polyline fill="none" stroke="black" points="154.978,-324.878 294.619,-324.878 "/>
<polyline fill="none" stroke="black" points="154.978,-300.878 294.619,-300.878 "/>
<text text-anchor="start" x="162.978" y="-285.678" font-family="Times,serif" font-size="14.00">_layout</text>
<text text-anchor="start" x="162.978" y="-271.678" font-family="Times,serif" font-size="14.00">current_user</text>
<text text-anchor="start" x="162.978" y="-257.678" font-family="Times,serif" font-size="14.00">ensure_logged_in</text>
<text text-anchor="start" x="162.978" y="-243.678" font-family="Times,serif" font-size="14.00">pretty_date</text>
<text text-anchor="start" x="162.978" y="-229.678" font-family="Times,serif" font-size="14.00">pretty_pace</text>
</g>
<!-- ErrorPagesController -->
<g id="node3" class="node"><title>ErrorPagesController</title>
<path fill="none" stroke="black" d="M328.185,-65.3223C328.185,-65.3223 439.93,-65.3223 439.93,-65.3223 445.93,-65.3223 451.93,-71.3223 451.93,-77.3223 451.93,-77.3223 451.93,-143.322 451.93,-143.322 451.93,-149.322 445.93,-155.322 439.93,-155.322 439.93,-155.322 328.185,-155.322 328.185,-155.322 322.185,-155.322 316.185,-149.322 316.185,-143.322 316.185,-143.322 316.185,-77.3223 316.185,-77.3223 316.185,-71.3223 322.185,-65.3223 328.185,-65.3223"/>
<text text-anchor="middle" x="384.057" y="-140.122" font-family="Times,serif" font-size="14.00">ErrorPagesController</text>
<polyline fill="none" stroke="black" points="316.185,-133.322 451.93,-133.322 "/>
<text text-anchor="start" x="324.185" y="-118.122" font-family="Times,serif" font-size="14.00">handle_404</text>
<polyline fill="none" stroke="black" points="316.185,-111.322 451.93,-111.322 "/>
<polyline fill="none" stroke="black" points="316.185,-87.3223 451.93,-87.3223 "/>
<text text-anchor="start" x="324.185" y="-72.1223" font-family="Times,serif" font-size="14.00">_layout</text>
</g>
<!-- ApplicationController&#45;&gt;ErrorPagesController -->
<g id="edge1" class="edge"><title>ApplicationController&#45;&gt;ErrorPagesController</title>
<path fill="none" stroke="black" d="M288.199,-222.61C307.63,-199.849 328.406,-175.512 345.632,-155.333"/>
</g>
<!-- RunsController -->
<g id="node4" class="node"><title>RunsController</title>
<path fill="none" stroke="black" d="M12,-0.5C12,-0.5 131.524,-0.5 131.524,-0.5 137.524,-0.5 143.524,-6.5 143.524,-12.5 143.524,-12.5 143.524,-204.5 143.524,-204.5 143.524,-210.5 137.524,-216.5 131.524,-216.5 131.524,-216.5 12,-216.5 12,-216.5 6,-216.5 -2.84217e-14,-210.5 -2.84217e-14,-204.5 -2.84217e-14,-204.5 -2.84217e-14,-12.5 -2.84217e-14,-12.5 -2.84217e-14,-6.5 6,-0.5 12,-0.5"/>
<text text-anchor="middle" x="71.7622" y="-201.3" font-family="Times,serif" font-size="14.00">RunsController</text>
<polyline fill="none" stroke="black" points="-2.84217e-14,-194.5 143.524,-194.5 "/>
<text text-anchor="start" x="8" y="-179.3" font-family="Times,serif" font-size="14.00">create</text>
<text text-anchor="start" x="8" y="-165.3" font-family="Times,serif" font-size="14.00">destroy</text>
<text text-anchor="start" x="8" y="-151.3" font-family="Times,serif" font-size="14.00">edit</text>
<text text-anchor="start" x="8" y="-137.3" font-family="Times,serif" font-size="14.00">filter</text>
<text text-anchor="start" x="8" y="-123.3" font-family="Times,serif" font-size="14.00">index</text>
<text text-anchor="start" x="8" y="-109.3" font-family="Times,serif" font-size="14.00">new</text>
<text text-anchor="start" x="8" y="-95.3" font-family="Times,serif" font-size="14.00">show</text>
<text text-anchor="start" x="8" y="-81.3" font-family="Times,serif" font-size="14.00">update</text>
<polyline fill="none" stroke="black" points="-2.84217e-14,-74.5 143.524,-74.5 "/>
<polyline fill="none" stroke="black" points="-2.84217e-14,-50.5 143.524,-50.5 "/>
<text text-anchor="start" x="8" y="-35.3" font-family="Times,serif" font-size="14.00">_layout</text>
<text text-anchor="start" x="8" y="-21.3" font-family="Times,serif" font-size="14.00">ensure_run_ownership</text>
<text text-anchor="start" x="8" y="-7.3" font-family="Times,serif" font-size="14.00">run_params</text>
</g>
<!-- ApplicationController&#45;&gt;RunsController -->
<g id="edge2" class="edge"><title>ApplicationController&#45;&gt;RunsController</title>
<path fill="none" stroke="black" d="M164.534,-222.696C157.676,-214.254 150.634,-205.586 143.644,-196.982"/>
</g>
<!-- SessionsController -->
<g id="node5" class="node"><title>SessionsController</title>
<path fill="none" stroke="black" d="M21.902,-423.919C21.902,-423.919 119.681,-423.919 119.681,-423.919 125.681,-423.919 131.681,-429.919 131.681,-435.919 131.681,-435.919 131.681,-529.919 131.681,-529.919 131.681,-535.919 125.681,-541.919 119.681,-541.919 119.681,-541.919 21.902,-541.919 21.902,-541.919 15.902,-541.919 9.90205,-535.919 9.90205,-529.919 9.90205,-529.919 9.90205,-435.919 9.90205,-435.919 9.90205,-429.919 15.902,-423.919 21.902,-423.919"/>
<text text-anchor="middle" x="70.7917" y="-526.719" font-family="Times,serif" font-size="14.00">SessionsController</text>
<polyline fill="none" stroke="black" points="9.90205,-519.919 131.681,-519.919 "/>
<text text-anchor="start" x="17.902" y="-504.719" font-family="Times,serif" font-size="14.00">create</text>
<text text-anchor="start" x="17.902" y="-490.719" font-family="Times,serif" font-size="14.00">destroy</text>
<text text-anchor="start" x="17.902" y="-476.719" font-family="Times,serif" font-size="14.00">new</text>
<polyline fill="none" stroke="black" points="9.90205,-469.919 131.681,-469.919 "/>
<polyline fill="none" stroke="black" points="9.90205,-445.919 131.681,-445.919 "/>
<text text-anchor="start" x="17.902" y="-430.719" font-family="Times,serif" font-size="14.00">_layout</text>
</g>
<!-- ApplicationController&#45;&gt;SessionsController -->
<g id="edge3" class="edge"><title>ApplicationController&#45;&gt;SessionsController</title>
<path fill="none" stroke="black" d="M163.489,-370.941C148.977,-388.471 133.689,-406.939 119.806,-423.71"/>
</g>
<!-- UsersController -->
<g id="node6" class="node"><title>UsersController</title>
<path fill="none" stroke="black" d="M342.928,-416.483C342.928,-416.483 424.356,-416.483 424.356,-416.483 430.356,-416.483 436.356,-422.483 436.356,-428.483 436.356,-428.483 436.356,-536.483 436.356,-536.483 436.356,-542.483 430.356,-548.483 424.356,-548.483 424.356,-548.483 342.928,-548.483 342.928,-548.483 336.928,-548.483 330.928,-542.483 330.928,-536.483 330.928,-536.483 330.928,-428.483 330.928,-428.483 330.928,-422.483 336.928,-416.483 342.928,-416.483"/>
<text text-anchor="middle" x="383.642" y="-533.283" font-family="Times,serif" font-size="14.00">UsersController</text>
<polyline fill="none" stroke="black" points="330.928,-526.483 436.356,-526.483 "/>
<text text-anchor="start" x="338.928" y="-511.283" font-family="Times,serif" font-size="14.00">create</text>
<text text-anchor="start" x="338.928" y="-497.283" font-family="Times,serif" font-size="14.00">index</text>
<text text-anchor="start" x="338.928" y="-483.283" font-family="Times,serif" font-size="14.00">new</text>
<polyline fill="none" stroke="black" points="330.928,-476.483 436.356,-476.483 "/>
<polyline fill="none" stroke="black" points="330.928,-452.483 436.356,-452.483 "/>
<text text-anchor="start" x="338.928" y="-437.283" font-family="Times,serif" font-size="14.00">_layout</text>
<text text-anchor="start" x="338.928" y="-423.283" font-family="Times,serif" font-size="14.00">user_params</text>
</g>
<!-- ApplicationController&#45;&gt;UsersController -->
<g id="edge4" class="edge"><title>ApplicationController&#45;&gt;UsersController</title>
<path fill="none" stroke="black" d="M288.263,-371.034C302.348,-387.492 317.132,-404.767 330.742,-420.67"/>
</g>
</g>
</svg>
