<?xml version="1.0" encoding="UTF-8" standalone="no"?>
<!DOCTYPE svg PUBLIC "-//W3C//DTD SVG 1.1//EN"
 "http://www.w3.org/Graphics/SVG/1.1/DTD/svg11.dtd">
<!-- Generated by graphviz version 2.36.0 (20140111.2315)
 -->
<!-- Title: models_diagram Pages: 1 -->
<svg width="395pt" height="226pt"
 viewBox="0.00 0.00 395.00 226.00" xmlns="http://www.w3.org/2000/svg" xmlns:xlink="http://www.w3.org/1999/xlink">
<g id="graph0" class="graph" transform="scale(1 1) rotate(0) translate(4 222)">
<title>models_diagram</title>
<polygon fill="white" stroke="none" points="-4,4 -4,-222 391,-222 391,4 -4,4"/>
<!-- _diagram_info -->
<g id="node1" class="node"><title>_diagram_info</title>
<text text-anchor="start" x="7.31226" y="-203.1" font-family="Times,serif" font-size="13.00">Models diagram</text>
<text text-anchor="start" x="7.31226" y="-190.1" font-family="Times,serif" font-size="13.00">Date: Jun 10 2014 &#45; 10:34</text>
<text text-anchor="start" x="7.31226" y="-177.1" font-family="Times,serif" font-size="13.00">Migration version: 20140527000721</text>
<text text-anchor="start" x="7.31226" y="-164.1" font-family="Times,serif" font-size="13.00">Generated by RailRoady 1.1.1</text>
<text text-anchor="start" x="7.31226" y="-151.1" font-family="Times,serif" font-size="13.00">http://railroady.prestonlee.com</text>
</g>
<!-- Run -->
<g id="node2" class="node"><title>Run</title>
<ellipse fill="none" stroke="black" cx="305" cy="-18" rx="27" ry="18"/>
<text text-anchor="middle" x="305" y="-13.8" font-family="Times,serif" font-size="14.00">Run</text>
</g>
<!-- User -->
<g id="node3" class="node"><title>User</title>
<ellipse fill="none" stroke="black" cx="333" cy="-90" rx="27" ry="18"/>
<text text-anchor="middle" x="333" y="-85.8" font-family="Times,serif" font-size="14.00">User</text>
</g>
<!-- User&#45;&gt;Run -->
<g id="edge2" class="edge"><title>User&#45;&gt;Run</title>
<path fill="none" stroke="#7bbe8e" d="M323.38,-64.9496C320.828,-58.5703 318.061,-51.6515 315.466,-45.1657"/>
<ellipse fill="none" stroke="#7bbe8e" cx="324.879" cy="-68.6971" rx="4.00001" ry="4.00001"/>
<polygon fill="#7bbe8e" stroke="#7bbe8e" points="315.302,-44.7547 315.766,-33.7987 313.445,-40.1123 311.588,-35.4699 311.588,-35.4699 311.588,-35.4699 313.445,-40.1123 307.41,-37.1412 315.302,-44.7547 315.302,-44.7547"/>
</g>
<!-- ActiveRecord::Base -->
<g id="node4" class="node"><title>ActiveRecord::Base</title>
<ellipse fill="none" stroke="black" cx="306" cy="-181" rx="80.9821" ry="18"/>
<text text-anchor="middle" x="306" y="-176.8" font-family="Times,serif" font-size="14.00">ActiveRecord::Base</text>
</g>
<!-- ActiveRecord::Base&#45;&gt;Run -->
<g id="edge1" class="edge"><title>ActiveRecord::Base&#45;&gt;Run</title>
<path fill="none" stroke="black" d="M302.886,-162.798C299.417,-141.493 294.592,-104.083 297,-72 297.905,-59.9366 299.954,-46.4578 301.752,-36.1119"/>
</g>
<!-- ActiveRecord::Base&#45;&gt;User -->
<g id="edge3" class="edge"><title>ActiveRecord::Base&#45;&gt;User</title>
<path fill="none" stroke="black" d="M311.206,-162.84C316.018,-146.979 323.125,-123.553 327.902,-107.806"/>
</g>
</g>
</svg>
