<?xml version="1.0" encoding="UTF-8" standalone="no"?>
<!DOCTYPE svg PUBLIC "-//W3C//DTD SVG 1.1//EN"
 "http://www.w3.org/Graphics/SVG/1.1/DTD/svg11.dtd">
<!-- Generated by graphviz version 2.36.0 (20140111.2315)
 -->
<!-- Title: models_diagram Pages: 1 -->
<svg width="439pt" height="372pt"
 viewBox="0.00 0.00 439.00 372.00" xmlns="http://www.w3.org/2000/svg" xmlns:xlink="http://www.w3.org/1999/xlink">
<g id="graph0" class="graph" transform="scale(1 1) rotate(0) translate(4 368)">
<title>models_diagram</title>
<polygon fill="white" stroke="none" points="-4,4 -4,-368 435,-368 435,4 -4,4"/>
<!-- _diagram_info -->
<g id="node1" class="node"><title>_diagram_info</title>
<text text-anchor="start" x="7.31226" y="-349.1" font-family="Times,serif" font-size="13.00">Models diagram</text>
<text text-anchor="start" x="7.31226" y="-336.1" font-family="Times,serif" font-size="13.00">Date: Jun 10 2014 &#45; 10:34</text>
<text text-anchor="start" x="7.31226" y="-323.1" font-family="Times,serif" font-size="13.00">Migration version: 20140527000721</text>
<text text-anchor="start" x="7.31226" y="-310.1" font-family="Times,serif" font-size="13.00">Generated by RailRoady 1.1.1</text>
<text text-anchor="start" x="7.31226" y="-297.1" font-family="Times,serif" font-size="13.00">http://railroady.prestonlee.com</text>
</g>
<!-- Run -->
<g id="node2" class="node"><title>Run</title>
<path fill="none" stroke="black" d="M257.319,-1C257.319,-1 354.681,-1 354.681,-1 360.681,-1 366.681,-7 366.681,-13 366.681,-13 366.681,-117 366.681,-117 366.681,-123 360.681,-129 354.681,-129 354.681,-129 257.319,-129 257.319,-129 251.319,-129 245.319,-123 245.319,-117 245.319,-117 245.319,-13 245.319,-13 245.319,-7 251.319,-1 257.319,-1"/>
<text text-anchor="middle" x="306" y="-113.8" font-family="Times,serif" font-size="14.00">Run</text>
<polyline fill="none" stroke="black" points="245.319,-107 366.681,-107 "/>
<text text-anchor="start" x="253.319" y="-91.8" font-family="Times,serif" font-size="14.00">id :integer</text>
<text text-anchor="start" x="253.319" y="-77.8" font-family="Times,serif" font-size="14.00">run_date :date</text>
<text text-anchor="start" x="253.319" y="-63.8" font-family="Times,serif" font-size="14.00">distance :float</text>
<text text-anchor="start" x="253.319" y="-49.8" font-family="Times,serif" font-size="14.00">route_name :string</text>
<text text-anchor="start" x="253.319" y="-35.8" font-family="Times,serif" font-size="14.00">notes :text</text>
<text text-anchor="start" x="253.319" y="-21.8" font-family="Times,serif" font-size="14.00">run_time :integer</text>
<text text-anchor="start" x="253.319" y="-7.8" font-family="Times,serif" font-size="14.00">user_id :integer</text>
</g>
<!-- User -->
<g id="node3" class="node"><title>User</title>
<path fill="none" stroke="black" d="M294.698,-167C294.698,-167 419.302,-167 419.302,-167 425.302,-167 431.302,-173 431.302,-179 431.302,-179 431.302,-241 431.302,-241 431.302,-247 425.302,-253 419.302,-253 419.302,-253 294.698,-253 294.698,-253 288.698,-253 282.698,-247 282.698,-241 282.698,-241 282.698,-179 282.698,-179 282.698,-173 288.698,-167 294.698,-167"/>
<text text-anchor="middle" x="357" y="-237.8" font-family="Times,serif" font-size="14.00">User</text>
<polyline fill="none" stroke="black" points="282.698,-231 431.302,-231 "/>
<text text-anchor="start" x="290.698" y="-215.8" font-family="Times,serif" font-size="14.00">id :integer</text>
<text text-anchor="start" x="290.698" y="-201.8" font-family="Times,serif" font-size="14.00">name :string</text>
<text text-anchor="start" x="290.698" y="-187.8" font-family="Times,serif" font-size="14.00">email :string</text>
<text text-anchor="start" x="290.698" y="-173.8" font-family="Times,serif" font-size="14.00">password_digest :string</text>
</g>
<!-- User&#45;&gt;Run -->
<g id="edge2" class="edge"><title>User&#45;&gt;Run</title>
<path fill="none" stroke="#f78f2b" d="M339.24,-159.203C336.853,-152.509 334.365,-145.534 331.873,-138.546"/>
<ellipse fill="none" stroke="#f78f2b" cx="340.63" cy="-163.101" rx="4.00001" ry="4.00001"/>
<polygon fill="#f78f2b" stroke="#f78f2b" points="331.84,-138.453 332.719,-127.522 330.16,-133.744 328.481,-129.034 328.481,-129.034 328.481,-129.034 330.16,-133.744 324.242,-130.546 331.84,-138.453 331.84,-138.453"/>
</g>
<!-- ActiveRecord::Base -->
<g id="node4" class="node"><title>ActiveRecord::Base</title>
<ellipse fill="none" stroke="black" cx="306" cy="-327" rx="80.9821" ry="18"/>
<text text-anchor="middle" x="306" y="-322.8" font-family="Times,serif" font-size="14.00">ActiveRecord::Base</text>
</g>
<!-- ActiveRecord::Base&#45;&gt;Run -->
<g id="edge1" class="edge"><title>ActiveRecord::Base&#45;&gt;Run</title>
<path fill="none" stroke="black" d="M295.963,-308.943C288.241,-294.774 278.203,-273.804 274,-254 265.881,-215.741 267.968,-204.643 274,-166 275.898,-153.843 279.019,-141.145 282.588,-129.036"/>
</g>
<!-- ActiveRecord::Base&#45;&gt;User -->
<g id="edge3" class="edge"><title>ActiveRecord::Base&#45;&gt;User</title>
<path fill="none" stroke="black" d="M313.525,-309.031C320.009,-294.411 329.647,-272.678 338.202,-253.388"/>
</g>
</g>
</svg>
